<svg width="1127" height="520" viewBox="0 0 1127 520" fill="none" xmlns="http://www.w3.org/2000/svg">
<path fill-rule="evenodd" clip-rule="evenodd" d="M873.466 69.0035C853.903 81.0586 835.025 107.169 823.667 128.826C819.691 136.407 810.322 139.329 802.741 135.353C800.822 134.347 799.201 132.995 797.916 131.414C797.745 135.322 798.423 138.518 799.479 141.242C801.765 147.139 806.646 152.934 814.43 159.224C820.566 164.181 827.368 168.596 834.784 173.408L834.786 173.41L834.787 173.41C836.94 174.808 839.146 176.239 841.401 177.727C850.697 183.859 861.223 191.192 868.668 200.286C869.445 201.234 871.628 203.131 879.556 201.996C887.392 200.875 897.217 197.145 907.654 191.941C917.87 186.847 927.625 180.879 935.187 176.08C936.79 175.063 938.407 174.026 939.91 173.062L939.917 173.057C941.731 171.894 943.377 170.838 944.63 170.054C945.808 169.316 947.102 168.524 948.252 167.902C948.776 167.62 949.718 167.124 950.83 166.692C951.192 166.551 951.805 166.324 952.595 166.11C952.825 165.498 953.08 164.557 953.243 163.172C954.26 154.517 951.068 132.627 923.407 87.0761C913.46 70.695 904.341 64.9521 897.578 63.2939C890.835 61.6405 882.908 63.1855 873.466 69.0035ZM952.087 167.085C952.087 167.084 952.087 167.083 952.088 167.081C952.091 167.077 952.097 167.069 952.107 167.056C952.118 167.044 952.133 167.027 952.153 167.006C952.113 167.062 952.089 167.086 952.087 167.085ZM800.908 105.913C813.667 83.8344 833.634 57.1353 857.204 42.6117C870.894 34.1756 887.427 28.8868 904.96 33.1858C922.474 37.48 937.45 50.4758 949.904 70.9857C978.249 117.663 986.326 147.253 984.031 166.789C982.815 177.145 978.631 184.909 972.905 190.031C970.168 192.48 967.224 194.187 964.396 195.243C963.462 195.592 962.451 195.904 961.381 196.141C961.284 196.201 961.183 196.265 961.076 196.331C959.863 197.091 958.524 197.951 956.932 198.973L956.916 198.983L956.911 198.986L956.902 198.992C955.444 199.928 953.774 201 951.796 202.256C943.963 207.226 933.144 213.87 921.487 219.683C910.052 225.386 896.704 230.858 883.948 232.684C871.285 234.496 855.457 233.086 844.681 219.923C840.574 214.907 833.797 209.848 824.332 203.605C822.544 202.425 820.653 201.2 818.695 199.931C811.089 195 802.472 189.415 794.948 183.337C785.354 175.586 775.695 165.657 770.574 152.446C765.232 138.662 765.577 123.297 772.395 106.441C775.604 98.5052 784.64 94.6739 792.575 97.8836C796.438 99.446 799.329 102.389 800.908 105.913ZM663.472 3.15972C671.713 5.47912 676.512 14.0394 674.193 22.2796C667.105 47.4611 657.829 86.0762 652.984 119.998C650.55 137.043 649.338 152.215 649.87 163.663C650.137 169.41 650.82 173.549 651.663 176.255C651.975 177.258 652.247 177.869 652.418 178.202C654.182 179.125 658.354 180.331 666.255 180.293C674.594 180.252 684.837 178.856 695.989 176.49C718.238 171.771 741.897 163.676 756.782 157.673C764.72 154.47 773.752 158.31 776.954 166.249C780.156 174.188 776.317 183.22 768.378 186.422C752.327 192.896 726.898 201.623 702.422 206.816C690.211 209.406 677.682 211.238 666.404 211.292C655.698 211.344 643.405 209.843 633.983 203.193C627.328 198.497 623.93 191.461 622.066 185.475C620.134 179.276 619.235 172.237 618.904 165.104C618.238 150.791 619.757 133.392 622.295 115.615C627.397 79.894 637.039 39.8649 644.353 13.8802C646.672 5.64004 655.232 0.840299 663.472 3.15972ZM553.861 1.33435C561.797 4.54407 565.628 13.5794 562.419 21.5153C562.033 22.4681 561.403 24.9547 561.1 29.6359C560.811 34.0981 560.867 39.6745 561.277 46.2475C562.095 59.3887 564.254 75.4474 567.186 92.5549C573.042 126.719 581.755 163.78 587.99 187.423C590.172 195.701 585.231 204.181 576.954 206.363C568.677 208.546 560.197 203.605 558.014 195.327C551.619 171.075 542.682 133.093 536.632 97.7918C533.611 80.1666 531.253 62.8871 530.337 48.1748C529.878 40.8211 529.763 33.8421 530.165 27.6313C530.553 21.6395 531.479 15.3356 533.68 9.89185C536.89 1.95596 545.925 -1.87537 553.861 1.33435ZM996.807 339.531C1011.63 339.656 1029.24 339.372 1046.27 338.296C1050.14 338.052 1053.96 337.768 1057.68 337.441C1056.4 334.528 1055.1 331.599 1053.81 328.669C1044.36 307.302 1034.8 285.821 1026.77 268.893C1025.13 265.432 1023.56 262.193 1022.09 259.208C1020.96 262.206 1019.76 265.506 1018.51 269.094C1011.93 287.887 1004.38 312.833 996.807 339.531ZM1089.56 332.888L1088.18 329.76L1086.62 326.233L1086.53 326.036C1085.09 322.761 1083.63 319.455 1082.16 316.136C1072.74 294.814 1063.01 272.965 1054.78 255.605C1050.67 246.939 1046.84 239.204 1043.54 233.133C1041.9 230.104 1040.29 227.322 1038.79 224.971C1037.44 222.878 1035.58 220.181 1033.35 218.035C1029.54 214.382 1023.95 212.335 1017.97 213.58C1013.21 214.57 1010.05 217.289 1008.53 218.767C1005.38 221.837 1002.99 225.943 1001.27 229.253C997.528 236.446 993.436 246.874 989.244 258.859C980.76 283.115 970.905 316.577 961.567 350.458C953.698 379.006 946.134 408.074 939.984 432.575C935.971 431.059 931.351 431.207 927.26 433.369C916.573 439.016 885.283 448.201 853.953 435.53C850.516 434.14 846.152 430.027 842.234 419.947C838.411 410.112 835.969 396.937 834.777 381.81C832.401 351.67 835.234 317.312 838.629 294.937C839.913 286.474 834.093 278.571 825.63 277.287C817.166 276.003 809.264 281.823 807.98 290.286C804.358 314.154 801.253 351.015 803.873 384.246C804.907 397.367 806.873 410.481 810.317 422.239C806.852 423.519 803.83 426.036 801.975 429.563C801.975 429.564 801.974 429.566 801.97 429.572C801.967 429.578 801.96 429.588 801.949 429.601C801.942 429.61 801.933 429.621 801.922 429.634C801.874 429.689 801.76 429.807 801.535 429.976C801.062 430.33 800.161 430.857 798.617 431.387C795.403 432.491 790.716 433.171 784.757 433.205C774.166 433.266 762.314 431.297 753.729 429.195C735.946 414.477 728.986 393.385 728.26 370.849C727.497 347.158 733.792 323.764 739.744 309.843C743.11 301.972 739.457 292.863 731.586 289.498C723.715 286.132 714.606 289.785 711.24 297.656C703.889 314.85 696.339 342.758 697.276 371.847C698.22 401.138 707.939 433.477 737.324 455.737C738.902 456.933 740.695 457.815 742.605 458.336C753.049 461.184 769.419 464.294 784.936 464.204C792.673 464.16 801.072 463.322 808.689 460.706C814.136 458.834 819.896 455.786 824.496 450.89C829.173 456.562 835.015 461.31 842.33 464.268C881.546 480.13 919.838 470.879 938.065 462.578C940.143 465.524 943.253 467.761 947.03 468.688C955.343 470.729 963.737 465.644 965.778 457.33C971.702 433.195 979.698 401.902 988.246 370.416C1005.18 370.742 1027.05 370.573 1048.23 369.235C1055.88 368.751 1063.54 368.109 1070.9 367.267C1074.09 374.43 1077.12 381.136 1079.87 387.118C1083.54 395.099 1086.84 402.025 1089.5 407.124C1090.81 409.635 1092.12 412.005 1093.35 413.928C1093.95 414.864 1094.74 416.025 1095.67 417.142L1095.72 417.203C1096.25 417.836 1098.61 420.681 1102.56 422.278C1110.49 425.487 1119.53 421.656 1122.74 413.72C1125.16 407.725 1123.57 401.102 1119.22 396.837C1118.72 396.007 1117.98 394.69 1116.99 392.792C1114.7 388.398 1111.66 382.04 1108.03 374.155C1106.24 370.275 1104.34 366.081 1102.34 361.643C1108.13 360.051 1113.52 358.098 1118.08 355.659C1125.62 351.617 1128.46 342.223 1124.42 334.677C1120.38 327.131 1110.99 324.29 1103.44 328.332C1100.6 329.855 1095.97 331.433 1089.56 332.888ZM478.273 41.2692C486.823 41.6891 493.414 48.9606 492.994 57.5108L485.542 209.289C485.215 215.932 480.688 221.626 474.289 223.441C467.891 225.256 461.048 222.786 457.283 217.303L371.343 92.1532L381.071 199.958C381.84 208.483 375.552 216.019 367.026 216.788C358.501 217.557 350.965 211.269 350.196 202.744L335.144 35.9302C334.511 28.9091 338.695 22.345 345.327 19.9551C351.959 17.5653 359.369 19.9518 363.359 25.7631L456.832 161.884L462.032 55.9904C462.452 47.4403 469.723 40.8494 478.273 41.2692ZM668.404 315.716C669.436 324.214 663.384 331.94 654.886 332.972L561.953 344.258C557.666 354.877 554.307 368.753 554.566 383.21C565.792 381.603 578.598 379.44 590.08 376.871C598.785 374.923 606.189 372.859 611.432 370.819C613.635 369.962 615.091 369.248 615.957 368.745C619.954 362.771 627.718 360.208 634.645 363.01C642.581 366.22 646.412 375.255 643.202 383.191C640.846 389.017 636.236 392.544 633.365 394.42C630.095 396.556 626.336 398.284 622.673 399.709C615.293 402.581 606.138 405.044 596.849 407.123C585.265 409.715 572.631 411.891 561.35 413.55C567.216 425.959 577.571 437.944 595.019 447.756L647.174 430.786C655.314 428.138 664.061 432.59 666.709 440.73C669.358 448.87 664.906 457.616 656.765 460.265L598.384 479.261C594.53 480.515 590.339 480.209 586.708 478.411C556.365 463.379 538.866 442.282 530.285 419.642C517.997 434.133 498.079 452.997 475.884 464.292C464.199 470.238 450.877 474.603 437.117 474.26C422.845 473.904 409.087 468.48 397.519 456.624C376.516 435.099 369.094 406.274 367.57 380.831C366.039 355.273 370.305 331.029 374.859 316.056C377.35 307.867 386.009 303.247 394.199 305.738C402.389 308.229 407.009 316.888 404.517 325.078C400.891 337 397.231 357.553 398.515 378.978C399.805 400.517 405.936 420.861 419.707 434.975C425.526 440.938 431.554 443.112 437.89 443.27C444.736 443.441 452.841 441.235 461.824 436.664C479.924 427.453 497.486 410.748 508.021 397.941C512.025 393.073 518.377 391.273 524.088 392.835C521.379 365.1 529.322 339.018 537.722 322.79C540.078 318.239 544.531 315.146 549.618 314.529L651.149 302.198C659.647 301.166 667.372 307.218 668.404 315.716ZM616.775 368.201C616.781 368.202 616.726 368.251 616.591 368.345C616.702 368.248 616.769 368.201 616.775 368.201ZM305.148 369.419L305.121 369.406C303.517 368.619 301.361 367.285 297.989 365.108C297.585 364.847 297.168 364.577 296.738 364.299L296.737 364.298L296.737 364.298C290.658 360.36 282.003 354.754 272.194 351.054C261.322 346.953 248 344.756 233.539 349.446C219.237 354.084 206.011 364.749 193.768 382.024C184.917 394.512 178.957 403.369 175.216 409.429C173.374 412.414 171.863 415.051 170.798 417.276C170.281 418.356 169.663 419.76 169.199 421.307L169.177 421.38C168.909 422.259 167.683 426.292 169.027 430.997C169.464 432.529 170.208 434.223 171.353 435.841C165.295 448.353 152.855 466.881 134.787 478.231C124.804 484.502 113.257 488.503 99.9293 488.372C86.5717 488.241 70.3084 483.946 50.9575 471.833C36.661 462.884 32.3314 454.308 31.4403 447.421C30.4587 439.835 33.1169 430.349 40.4037 419.105C55.079 396.461 83.6772 374.188 106.373 360.605C113.718 356.209 116.109 346.69 111.713 339.345C107.317 332 97.7988 329.609 90.4534 334.005C66.1838 348.529 32.8558 373.752 14.3893 402.245C5.10519 416.571 -1.61137 433.563 0.696579 451.399C3.09496 469.934 14.7192 485.721 34.5091 498.109C57.7662 512.668 79.5408 519.173 99.6248 519.37C119.739 519.568 137.037 513.426 151.276 504.481C163.028 497.099 172.79 487.764 180.629 478.255C183.646 484.299 187.604 490.177 192.705 495.555C211.106 514.955 241.111 524.5 284.776 516.65C312.597 511.648 331.921 500.382 342.962 483.864C353.912 467.481 354.818 448.756 351.815 432.694C348.817 416.66 341.703 401.761 334.328 390.928C330.644 385.516 326.553 380.612 322.386 376.94C320.322 375.121 317.84 373.247 315.023 371.836C312.903 370.773 309.406 369.372 305.148 369.419ZM306.091 369.818C306.093 369.823 306.023 369.804 305.873 369.745C306.014 369.784 306.089 369.813 306.091 369.818ZM202.55 431.941C203.197 433.867 203.474 435.946 203.307 438.081C202.461 448.921 205.338 463.828 215.196 474.221C224.297 483.816 242.456 492.761 279.291 486.139C301.782 482.095 312.267 474.001 317.189 466.637C322.201 459.138 323.412 449.459 321.343 438.39C319.268 427.293 314.122 416.333 308.703 408.373C306.136 404.603 303.815 401.959 302.163 400.443C297.539 400.058 293.695 398.33 291.47 397.239C287.954 395.514 284.274 393.152 281.177 391.154L280.532 390.737C273.953 386.489 267.849 382.547 261.253 380.059C254.811 377.629 248.97 377.031 243.101 378.934C237.073 380.889 228.802 386.203 219.06 399.949C216.022 404.235 213.375 408.024 211.078 411.364C212.677 416.462 211.594 422.25 207.728 426.477C206.083 428.277 204.302 430.168 202.55 431.941ZM75.3206 64.7525C73.6753 67.9176 71.8187 72.4084 69.8897 78.0523C65.4311 91.0965 61.6008 107.232 59.2604 119.114L84.5757 255.826C91.3907 251.725 99.8352 245.704 108.886 237.204C116.485 230.067 123.725 218.385 129.936 204.234C140.23 180.777 145.974 154.581 146.772 141.849C147.154 135.756 144.811 125.16 140.437 112.682C137.146 103.293 133.197 94.1809 129.986 87.4548C121.255 83.5421 109.656 78.4628 98.6108 73.8671C89.219 69.9592 81.0045 66.7357 75.3206 64.7525ZM110.52 45.2458C124.231 50.951 138.685 57.3425 147.832 61.4971C151.019 62.9445 153.622 65.4279 155.218 68.5431C159.207 76.3308 165.003 89.0484 169.692 102.428C174.166 115.193 178.516 130.946 177.711 143.788C176.656 160.616 169.877 190.363 158.322 216.691C151.389 232.49 142.11 248.528 130.108 259.8C107.745 280.804 86.6476 290.726 76.7891 293.24C72.6321 294.3 68.2218 293.59 64.6077 291.279C60.9937 288.967 58.4993 285.261 57.7182 281.043L28.2457 121.881C27.8978 120.002 27.9003 118.075 28.253 116.197C30.6663 103.348 35.0784 84.0512 40.5558 68.026C43.245 60.1583 46.5019 52.1373 50.3616 45.9801C52.2564 42.9572 54.8859 39.4144 58.4567 36.6711C62.21 33.7876 68.3141 30.8952 75.728 32.5469C83.2822 34.2297 97.425 39.7972 110.52 45.2458ZM306.177 162.233C305.007 158.685 303.762 155.025 302.437 151.254C286.53 105.976 257.806 74.7196 244.178 63.9142C239.888 60.5132 234.123 59.6269 229.01 61.5827C223.897 63.5385 220.195 68.0462 219.27 73.4417L207.393 142.754L199.032 141.393C190.582 140.018 182.618 145.753 181.243 154.203C179.868 162.652 185.603 170.616 194.053 171.991L202.157 173.31L187.549 258.553C186.103 266.99 191.771 275.002 200.209 276.448C208.646 277.894 216.658 272.226 218.104 263.788L232.755 178.289L281.208 186.173C289.237 213.131 291.551 229.669 291.709 234.334C291.999 242.89 299.17 249.59 307.725 249.3C316.281 249.01 322.981 241.84 322.691 233.284C322.406 224.857 319.217 204.602 310.095 174.589C310.679 169.938 309.127 165.477 306.177 162.233ZM269.914 152.927L237.992 147.733L244.596 109.194C253.198 120.316 262.605 135.125 269.914 152.927Z" fill="#D6D3D1"/>
</svg>
